<?xml version="1.0" standalone="no"?>
<!DOCTYPE svg PUBLIC "-//W3C//DTD SVG 20010904//EN"
 "http://www.w3.org/TR/2001/REC-SVG-20010904/DTD/svg10.dtd">
<svg version="1.0" xmlns="http://www.w3.org/2000/svg"
 width="412.000000pt" height="412.000000pt" viewBox="0 0 412.000000 412.000000"
 preserveAspectRatio="xMidYMid meet">
<metadata>
Created by potrace 1.11, written by Peter Selinger 2001-2013
</metadata>
<g transform="translate(0.000000,412.000000) scale(0.100000,-0.100000)"
fill="#000000" stroke="none">
<path d="M2030 4032 c0 -7 -5 -12 -11 -12 -21 0 -140 -132 -166 -183 -20 -41
-27 -72 -32 -154 -4 -72 -3 -111 6 -126 6 -12 9 -26 6 -31 -4 -5 -1 -6 6 -2 6
4 14 0 18 -11 4 -10 13 -24 20 -31 7 -8 11 -18 8 -23 -4 -5 -2 -9 3 -9 5 0 10
-15 11 -32 1 -18 2 -46 3 -63 2 -43 -12 -146 -23 -167 -6 -10 -7 -23 -4 -28 3
-6 1 -10 -4 -10 -6 0 -11 -8 -12 -17 0 -10 -13 -40 -29 -68 -16 -27 -34 -60
-39 -73 -6 -12 -17 -25 -26 -28 -8 -3 -12 -10 -9 -15 3 -5 0 -9 -7 -9 -7 0
-10 -3 -6 -6 3 -3 -4 -16 -16 -29 -12 -12 -32 -34 -44 -48 -12 -14 -40 -38
-62 -53 -23 -14 -38 -30 -35 -35 3 -5 -2 -6 -10 -3 -11 4 -16 0 -16 -12 0 -23
-13 -10 -17 18 -2 12 0 19 3 15 8 -7 64 23 64 35 0 14 -18 9 -24 -7 -3 -8 -10
-15 -16 -15 -7 0 -8 6 -1 19 6 10 7 22 3 26 -4 4 4 4 18 0 l25 -7 -25 18 c-14
11 -29 18 -34 16 -5 -2 -6 4 -2 13 4 10 2 14 -5 9 -7 -4 -10 -1 -7 7 3 9 17
13 36 12 33 -2 37 3 23 25 -7 11 -9 11 -14 -2 -4 -9 -11 -16 -17 -16 -7 0 -7
6 0 21 7 11 9 23 6 27 -3 3 -6 1 -6 -5 0 -5 -7 -10 -16 -10 -15 0 -15 1 0 12
9 7 16 18 16 26 0 8 5 6 14 -6 13 -18 14 -18 9 9 -4 21 -2 27 6 22 6 -4 8 -12
5 -18 -4 -7 -2 -8 4 -4 9 5 9 13 2 27 -9 15 -7 21 5 25 8 3 15 13 15 21 0 10
6 13 16 9 14 -5 15 -4 5 8 -10 11 -9 16 4 24 9 5 17 12 16 15 -1 10 9 37 30
84 11 24 19 46 18 50 -3 18 2 34 9 30 4 -3 8 14 9 36 1 23 4 57 7 75 3 17 2
32 -2 32 -11 -1 -42 -26 -42 -35 0 -4 -10 -16 -22 -26 -11 -11 -17 -19 -12
-19 5 0 4 -4 -2 -8 -17 -12 -70 -94 -105 -163 -28 -55 -33 -74 -33 -141 0 -48
4 -82 12 -90 15 -15 16 -31 0 -22 -6 4 -8 3 -5 -3 8 -13 -17 -36 -28 -25 -5 4
-5 2 -1 -5 4 -7 14 -9 23 -6 10 4 14 2 10 -4 -4 -6 -1 -14 5 -17 7 -3 3 -3 -9
0 -14 3 -23 1 -23 -6 0 -6 -4 -9 -10 -5 -5 3 -7 13 -4 23 5 14 4 15 -5 2 -5
-8 -12 -12 -15 -9 -3 3 7 18 23 33 l29 28 -23 44 c-21 40 -23 57 -24 191 -2
200 -5 219 -48 310 -20 41 -111 123 -137 123 -2 0 0 -17 5 -37 5 -21 9 -80 9
-132 0 -112 -5 -123 -114 -230 -92 -90 -111 -127 -119 -226 -1 -11 -20 -56
-41 -99 -35 -72 -39 -87 -39 -155 1 -52 7 -88 19 -116 27 -57 95 -146 139
-180 66 -53 93 -78 69 -66 -41 20 -109 84 -152 141 -40 53 -155 140 -168 127
-11 -11 70 -145 142 -233 25 -31 44 -57 42 -59 -2 -2 -35 -9 -73 -15 -121 -19
-297 -69 -370 -104 -104 -51 -128 -104 -72 -158 32 -30 136 -77 230 -103 93
-26 98 -19 -58 -75 -49 -17 -141 -44 -204 -61 -64 -17 -122 -32 -130 -35 -46
-15 85 -51 191 -52 41 0 77 -7 102 -20 25 -12 63 -20 109 -21 39 -1 79 -7 90
-12 10 -6 67 -13 125 -15 59 -2 147 -6 195 -9 48 -2 98 0 110 4 18 7 26 2 48
-28 15 -22 48 -47 78 -61 37 -18 50 -29 45 -40 -32 -73 -1 -125 109 -180 l78
-39 -46 -45 c-55 -55 -85 -115 -76 -156 8 -37 59 -92 117 -126 24 -14 44 -29
44 -33 0 -4 -14 -15 -30 -25 -65 -38 -84 -64 -86 -119 -3 -67 19 -104 92 -152
l56 -37 -20 -22 c-39 -42 -50 -78 -37 -111 15 -34 48 -67 87 -88 l28 -14 -24
-28 c-31 -36 -36 -64 -19 -108 16 -39 55 -60 134 -72 l46 -7 0 -43 c0 -47 24
-95 47 -95 22 0 35 24 41 76 7 56 11 59 71 68 87 11 134 49 134 106 0 31 -6
44 -37 70 -31 28 -34 34 -20 41 39 22 103 77 113 97 17 34 6 68 -34 108 -19
19 -33 36 -31 38 2 1 27 11 54 21 100 37 131 75 121 152 -7 63 -25 84 -97 121
-35 17 -58 32 -51 32 7 0 42 14 78 31 89 43 119 84 119 160 0 67 -20 95 -92
129 -25 12 -44 23 -42 25 2 1 31 19 64 38 76 44 123 89 131 124 3 16 7 33 9
40 2 7 -1 15 -6 19 -6 3 15 17 48 30 33 13 70 37 85 55 30 35 -7 31 333 42 55
2 112 9 126 14 14 6 57 11 95 11 38 0 94 7 125 16 31 9 78 19 105 21 27 3 63
8 79 11 45 10 136 57 132 69 -2 5 -39 13 -83 17 -43 4 -119 18 -169 33 -103
30 -284 98 -270 101 161 39 295 112 295 160 0 18 -18 53 -35 70 -27 27 -183
92 -261 109 -10 2 -62 13 -114 25 -52 11 -102 21 -110 21 -8 0 -40 6 -70 12
-30 6 -65 10 -77 10 -13 0 -23 4 -23 9 0 6 7 7 16 4 8 -3 12 -2 9 3 -3 5 -1
12 5 16 5 3 10 1 10 -4 0 -6 10 -11 23 -10 l22 0 -23 10 c-15 6 -21 13 -16 21
5 7 -5 3 -20 -10 -22 -17 -32 -19 -42 -11 -9 8 -14 8 -14 1 0 -6 6 -13 13 -16
6 -3 3 -4 -8 -3 -11 1 -23 7 -27 12 -4 6 -13 10 -20 10 -7 1 -12 7 -10 15 2
10 0 11 -11 2 -8 -7 -17 -9 -20 -6 -3 4 3 14 15 24 24 19 16 44 -12 35 -13 -4
-18 -1 -16 9 2 18 16 34 16 19 0 -5 7 -10 15 -10 8 0 13 3 10 5 -3 3 0 11 7
19 6 8 7 13 2 12 -23 -4 -26 3 -8 22 14 15 15 20 4 17 -9 -2 -14 3 -11 12 2 8
4 20 4 25 0 6 -2 17 -4 25 -2 8 1 14 6 13 6 -1 11 6 11 16 0 13 -6 17 -19 13
-12 -3 -16 -10 -12 -21 5 -13 4 -14 -7 -3 -11 11 -9 16 11 31 19 15 22 21 13
38 -6 11 -8 23 -5 27 3 3 1 6 -6 6 -8 0 -11 -7 -6 -17 5 -14 3 -15 -6 -6 -12
12 -5 33 12 33 5 0 14 -10 20 -22 9 -22 9 -21 4 4 -4 23 -2 26 18 22 19 -4 20
-3 3 4 -14 6 -16 11 -8 16 7 4 17 4 24 0 7 -4 8 -3 4 5 -4 6 0 14 8 17 9 3 16
10 16 16 0 5 -13 0 -30 -12 -16 -12 -30 -17 -30 -11 0 5 10 17 22 25 12 9 19
18 17 21 -3 2 -15 -4 -26 -15 -16 -15 -22 -16 -26 -6 -3 8 5 18 19 24 22 11
25 42 3 42 -5 0 -9 5 -9 11 0 5 5 7 10 4 6 -3 10 -1 10 5 0 7 -7 10 -15 6 -15
-5 -21 9 -7 17 4 3 7 28 6 56 -1 28 2 54 7 57 15 9 10 27 -5 21 -8 -3 -26 6
-40 20 -26 26 -26 43 0 43 8 0 14 5 14 11 0 5 -6 7 -12 3 -10 -6 -10 -4 -2 7
13 18 12 41 -2 46 -7 2 -11 -6 -10 -19 1 -14 -5 -24 -16 -26 -10 -2 -18 1 -18
7 0 6 6 8 14 5 10 -4 13 3 11 25 -2 23 1 28 13 23 11 -4 13 -2 7 9 -8 12 -6
12 9 0 23 -19 42 -1 27 27 -6 10 -7 23 -3 28 4 5 -1 2 -11 -5 -16 -13 -16 -14
0 -27 20 -15 6 -19 -17 -4 -12 7 -12 12 -2 22 6 6 12 18 12 25 0 18 -43 83
-53 80 -5 -1 -7 -5 -5 -8 2 -3 -5 -18 -16 -33 -11 -18 -13 -25 -5 -21 8 5 3
-3 -11 -17 -29 -29 -65 -72 -62 -75 1 -2 -10 -14 -24 -28 -14 -14 -22 -30 -18
-37 4 -6 3 -8 -4 -4 -16 10 -27 -15 -11 -26 11 -7 9 -8 -6 -6 -12 2 -19 -2
-18 -9 2 -7 -2 -13 -8 -13 -6 0 -9 -7 -5 -15 3 -8 0 -15 -7 -15 -7 -1 -1 -7
13 -15 16 -9 19 -14 10 -15 -10 0 -17 -10 -18 -25 -3 -47 -5 -55 -13 -55 -5 0
-6 -7 -3 -15 4 -9 0 -15 -9 -15 -9 0 -19 -5 -23 -12 -5 -7 -3 -8 6 -3 7 4 2
-6 -11 -24 -12 -17 -35 -37 -51 -43 -15 -7 -28 -16 -28 -19 0 -7 -61 -46 -70
-45 -3 1 -19 -9 -37 -22 -17 -12 -38 -22 -47 -22 -9 0 -16 -5 -16 -11 0 -5 -5
-7 -10 -4 -8 5 -8 11 -1 19 6 7 8 15 5 19 -3 3 -1 14 5 25 8 16 7 21 -4 26 -8
3 -15 11 -15 18 0 9 3 9 12 0 7 -7 19 -12 27 -11 11 0 8 3 -5 9 -29 12 -26 55
6 98 24 33 26 46 5 48 -27 4 -29 6 -10 15 19 9 19 9 -2 5 -12 -2 -28 3 -35 11
-11 14 -10 15 12 8 l25 -8 -25 23 c-14 12 -18 20 -9 17 8 -3 21 4 28 14 11 19
31 18 31 -2 0 -6 -4 -8 -9 -4 -15 9 -23 -13 -11 -32 9 -15 10 -14 4 7 -6 22
-5 23 10 11 9 -8 15 -20 12 -28 -8 -20 2 -15 14 7 8 15 8 20 -2 18 -6 -2 -13
4 -14 12 0 8 -2 20 -4 25 -1 6 -3 21 -4 35 -1 26 -27 36 -32 12 -1 -7 0 -8 3
-2 2 5 9 10 14 10 12 0 6 -35 -10 -54 -15 -17 -56 -23 -46 -6 4 6 10 8 15 5 4
-3 13 1 19 9 9 10 8 15 -4 20 -10 3 -13 11 -9 18 4 7 4 10 -1 6 -4 -4 -13 0
-20 8 -9 13 -12 13 -13 3 -2 -24 -7 -43 -16 -58 -6 -9 -5 -12 1 -8 6 4 13 0
16 -7 4 -10 0 -13 -14 -11 -12 3 -17 0 -13 -7 4 -6 3 -8 -3 -5 -5 3 -9 -4 -7
-16 1 -12 3 -22 4 -22 1 0 3 -8 5 -17 2 -10 0 -17 -3 -17 -28 4 -34 -2 -16
-16 14 -11 15 -14 3 -9 -10 3 -20 1 -24 -5 -3 -6 0 -9 8 -5 8 3 18 0 23 -7 4
-8 3 -10 -4 -5 -6 4 -21 2 -33 -5 -15 -8 -19 -8 -15 0 4 6 3 11 -3 11 -22 0
-19 -19 5 -35 24 -15 25 -15 22 1 -2 9 3 19 11 22 10 3 12 0 8 -12 -4 -10 -1
-19 7 -22 8 -3 13 -14 11 -25 -2 -11 -1 -18 3 -15 4 2 8 -7 9 -21 0 -16 -2
-21 -7 -13 -5 8 -9 9 -14 1 -4 -6 -2 -11 4 -11 7 0 10 -6 8 -12 -3 -7 -10 -13
-15 -13 -6 0 -15 -3 -19 -7 -4 -5 0 -8 9 -8 9 0 17 -4 17 -10 0 -5 -8 -7 -17
-4 -14 5 -15 4 -4 -4 9 -7 10 -12 2 -16 -6 -4 -11 -3 -11 3 0 18 -33 5 -41
-17 -5 -14 -3 -22 7 -26 12 -5 14 -1 9 17 -5 17 -4 19 4 7 10 -13 11 -13 11 0
0 13 1 13 10 0 7 -11 10 -11 10 -2 0 7 4 11 9 7 5 -3 13 0 16 6 4 5 13 8 20 5
9 -3 12 2 10 15 -3 13 0 19 8 16 7 -2 10 -13 9 -23 -5 -23 -4 -23 -28 -28 -42
-9 -64 -19 -64 -28 0 -6 -6 -8 -14 -5 -8 3 -16 3 -18 -1 -2 -4 -25 -20 -53
-35 l-50 -28 30 25 c17 14 36 26 43 26 7 0 10 5 6 12 -4 7 -3 8 4 4 12 -7 17
6 6 17 -10 9 -34 -4 -27 -16 4 -6 1 -7 -7 -2 -10 6 -10 11 3 20 9 7 13 16 9
21 -4 4 1 2 11 -5 19 -15 23 -1 5 18 -11 10 -9 11 7 5 18 -7 18 -6 6 9 -7 9
-17 14 -22 12 -10 -7 -44 43 -35 52 3 3 6 1 6 -6 0 -8 10 -5 29 8 15 11 32 17
36 13 5 -4 5 -2 2 4 -4 6 -18 12 -32 12 -13 0 -22 -4 -19 -9 3 -5 0 -9 -5 -9
-13 0 -10 27 7 57 8 15 18 20 30 16 14 -6 15 -4 5 8 -14 17 0 39 25 39 12 0
12 3 2 16 -11 12 -11 15 1 12 9 -2 13 4 11 15 -2 9 3 17 11 17 8 0 13 9 12 21
-1 12 7 37 16 57 10 19 16 39 13 43 -3 5 -1 9 5 9 5 0 8 11 5 25 -3 15 0 25 7
25 7 0 9 -3 6 -7 -4 -3 2 -13 14 -21 17 -11 23 -12 32 -2 9 10 8 12 -5 7 -22
-8 -33 9 -11 17 9 4 25 -2 38 -14 12 -11 24 -17 28 -14 4 4 13 2 20 -4 10 -9
14 -8 14 3 0 8 -4 12 -8 9 -4 -2 -10 2 -13 8 -5 10 -7 10 -12 0 -8 -16 -69 34
-69 57 -1 24 23 69 42 81 15 9 14 10 -7 4 -14 -3 -22 -3 -18 1 3 3 -2 15 -13
26 -12 12 -17 25 -12 32 5 9 8 8 11 -4 4 -21 49 -42 58 -28 3 6 3 13 0 16 -3
4 -6 1 -6 -6 0 -9 -5 -9 -20 -1 -11 6 -18 15 -15 21 4 5 2 9 -4 9 -5 0 -16 6
-24 14 -13 13 -14 9 -12 -30 3 -41 15 -76 15 -43 0 11 2 11 10 -1 14 -22 12
-28 -7 -26 -11 0 -17 -6 -17 -16 1 -10 -1 -18 -5 -18 -4 0 -8 26 -8 58 -1 31
-4 74 -6 95 -6 39 8 51 21 18 7 -19 10 -21 33 -21 5 0 7 -4 4 -10 -3 -5 1 -10
10 -10 9 0 28 -12 44 -27 15 -16 37 -35 49 -43 12 -8 22 -21 22 -29 0 -8 3
-11 7 -7 4 3 22 -8 40 -26 18 -17 34 -29 34 -25 1 4 2 10 3 15 1 4 5 13 9 20
5 7 10 32 11 56 2 24 5 47 8 52 3 5 3 27 1 49 -2 22 -4 50 -5 63 -1 12 -5 22
-8 22 -3 0 -12 15 -19 32 -8 18 -42 68 -75 110 -72 91 -164 235 -168 263 -2
11 -6 25 -9 30 -3 6 -6 34 -7 64 -1 30 -6 59 -12 65 -7 7 -10 6 -10 -2z m581
-709 c13 -16 12 -17 -3 -4 -17 13 -22 21 -14 21 2 0 10 -8 17 -17z m9 -29 c0
-2 -7 -4 -15 -4 -8 0 -15 4 -15 10 0 5 7 7 15 4 8 -4 15 -8 15 -10z m14 -28
c-3 -9 -10 -16 -15 -16 -5 0 -4 9 3 20 14 22 21 20 12 -4z m-31 -1 c-3 -9 -8
-14 -10 -11 -3 3 -2 9 2 15 9 16 15 13 8 -4z m-26 -27 c-3 -8 -6 -5 -6 6 -1
11 2 17 5 13 3 -3 4 -12 1 -19z m-487 2 c0 -5 -4 -10 -10 -10 -5 0 -10 5 -10
10 0 6 5 10 10 10 6 0 10 -4 10 -10z m515 -33 c-11 -6 -21 -5 -28 3 -9 8 -7 9
7 4 13 -5 17 -4 12 4 -5 8 -2 10 10 5 15 -6 15 -7 -1 -16z m-529 -9 c-1 -13 2
-29 7 -35 11 -16 -11 -17 -33 -3 -12 7 -12 10 -1 10 8 0 11 6 7 17 -5 12 6 31
20 33 1 0 0 -10 0 -22z m512 -42 c-7 -8 -15 -12 -17 -11 -5 6 10 25 20 25 5 0
4 -6 -3 -14z m-48 -10 c0 -2 -8 -10 -17 -17 -16 -13 -17 -12 -4 4 13 16 21 21
21 13z m-1201 -20 c-8 -8 -60 -15 -55 -8 2 4 17 9 32 10 15 1 25 0 23 -2z
m1241 -1 c0 -2 -6 -8 -13 -14 -10 -8 -14 -7 -14 2 0 8 6 14 14 14 7 0 13 -1
13 -2z m30 -55 c0 -6 -9 -2 -20 7 -11 10 -20 19 -20 21 0 1 9 -2 20 -8 11 -6
20 -15 20 -20z m-520 -9 c0 -4 -10 -8 -22 -8 -18 -2 -20 0 -8 7 11 7 11 10 2
10 -7 0 -10 5 -7 10 7 11 35 -5 35 -19z m495 -1 c-3 -5 -1 -10 6 -10 7 0 10
-3 6 -6 -9 -9 -28 6 -22 17 4 5 8 9 11 9 3 0 2 -4 -1 -10z m-50 -20 c3 -6 -1
-7 -9 -4 -18 7 -21 14 -7 14 6 0 13 -4 16 -10z m95 0 c0 -5 -4 -10 -10 -10 -5
0 -10 5 -10 10 0 6 5 10 10 10 6 0 10 -4 10 -10z m33 -17 c-43 -30 -47 -36
-27 -44 16 -6 16 -8 2 -8 -26 -1 -31 16 -9 38 11 11 18 21 16 23 -2 2 5 4 16
4 19 0 19 -1 2 -13z m-193 -3 c0 -5 -2 -10 -4 -10 -3 0 -8 5 -11 10 -3 6 -1
10 4 10 6 0 11 -4 11 -10z m55 -8 c-3 -3 -11 0 -18 7 -9 10 -8 11 6 5 10 -3
15 -9 12 -12z m45 9 c0 -6 -4 -12 -8 -15 -5 -3 -9 1 -9 9 0 8 4 15 9 15 4 0 8
-4 8 -9z m-500 -22 c0 -14 -18 -11 -23 4 -3 6 -3 -12 -2 -40 2 -32 -1 -53 -7
-53 -6 0 -6 -6 2 -15 6 -8 9 -19 5 -24 -8 -14 14 -53 26 -46 5 4 9 12 9 18 0
7 -4 6 -10 -3 -5 -8 -10 -12 -10 -8 0 3 -3 14 -6 23 -4 9 -3 15 2 13 11 -4 48
34 52 53 1 8 -4 6 -13 -5 -22 -29 -43 -29 -41 0 1 18 5 23 21 19 11 -3 14 -2
7 1 -6 3 -10 10 -7 15 4 5 0 6 -8 3 -8 -3 -14 2 -14 11 0 21 10 19 35 -10 15
-17 27 -22 39 -18 16 6 17 5 3 -13 -8 -10 -23 -29 -33 -41 -11 -12 -16 -26
-13 -32 4 -6 2 -20 -4 -31 -8 -14 -7 -25 2 -41 11 -18 11 -22 0 -26 -10 -4
-10 -8 0 -21 12 -15 11 -16 -4 -4 -17 13 -43 8 -34 -7 3 -4 -5 -13 -17 -21
-20 -12 -21 -12 -8 4 8 9 11 19 8 23 -4 3 -2 12 4 20 15 17 21 83 8 83 -5 0
-8 3 -8 8 3 20 -2 32 -12 26 -8 -5 4 29 15 42 1 0 -5 9 -13 18 -11 13 -11 16
-2 14 15 -3 24 29 10 38 -15 9 9 44 26 38 8 -4 15 -10 15 -15z m535 2 c-3 -6
-11 -11 -16 -11 -5 0 -4 6 3 14 14 16 24 13 13 -3z m60 -1 c-3 -5 -12 -10 -18
-10 -7 0 -6 4 3 10 19 12 23 12 15 0z m-1431 -18 c3 -5 -1 -9 -9 -9 -8 0 -12
4 -9 9 3 4 7 8 9 8 2 0 6 -4 9 -8z m1308 -17 c2 3 5 -2 5 -10 0 -19 0 -19 -23
7 -12 14 -13 18 -3 10 9 -6 18 -10 21 -7z m36 -20 c-3 -3 -9 2 -12 12 -6 14
-5 15 5 6 7 -7 10 -15 7 -18z m36 17 c3 -5 -1 -9 -9 -9 -8 0 -12 4 -9 9 3 4 7
8 9 8 2 0 6 -4 9 -8z m50 -44 c-3 -4 -12 -8 -20 -8 -8 0 -12 4 -9 10 4 6 -1 7
-11 3 -14 -5 -13 -8 9 -20 14 -7 28 -22 32 -33 3 -11 12 -20 18 -20 7 -1 0 -8
-16 -16 -26 -14 -27 -16 -12 -44 15 -29 15 -31 -9 -40 -37 -14 -42 -31 -16
-52 l22 -18 -23 -19 c-23 -18 -23 -20 -6 -38 9 -11 14 -23 10 -26 -3 -4 -1 -7
7 -7 10 0 10 -3 0 -15 -10 -12 -10 -18 -1 -29 9 -10 9 -16 1 -21 -8 -5 -8 -11
1 -21 8 -10 8 -14 0 -14 -6 0 -11 5 -11 10 0 6 -5 10 -10 10 -6 0 -9 -6 -8
-12 2 -8 -6 -12 -17 -11 -18 1 -18 0 -4 -10 9 -7 17 -16 18 -22 1 -5 11 -9 22
-7 13 1 19 -3 16 -10 -2 -7 -11 -12 -20 -10 -8 1 -14 -3 -13 -10 3 -21 17 -39
26 -33 4 3 10 -1 13 -8 3 -7 -3 -13 -13 -13 -10 0 -18 4 -17 9 1 5 -4 12 -12
15 -8 3 -11 0 -7 -7 4 -6 2 -11 -4 -11 -7 0 -9 7 -6 17 6 15 5 15 -13 -1 -16
-15 -23 -16 -43 -5 -13 7 -23 11 -23 9 0 -2 -10 0 -22 4 -13 4 -23 12 -23 19
0 8 3 8 12 -1 7 -7 17 -12 22 -12 6 0 5 5 -1 11 -9 9 -6 17 10 31 17 15 18 18
5 14 -10 -3 -18 -1 -18 4 0 6 7 10 15 10 8 0 15 5 15 10 0 13 -6 13 -33 -1
-21 -10 -21 -10 -2 6 23 18 41 14 39 -9 -1 -9 3 -15 10 -13 6 3 10 10 8 16 -1
7 2 9 9 5 7 -4 10 -2 7 6 -2 7 -12 15 -21 17 -9 1 -25 5 -34 6 -10 2 -23 -3
-30 -12 -7 -9 -13 -11 -13 -5 0 6 7 17 15 24 8 7 15 9 15 6 0 -4 9 2 21 13 12
11 18 24 14 30 -3 6 -1 11 5 11 6 0 8 5 5 10 -3 6 -11 10 -16 10 -6 0 -7 -4
-4 -10 3 -5 1 -10 -4 -10 -6 0 -11 4 -11 9 0 5 -14 8 -32 6 -29 -4 -30 -3 -12
9 10 8 21 11 24 7 8 -10 58 -7 71 6 8 8 2 11 -23 11 -18 0 -44 4 -57 8 -17 5
-22 4 -17 -4 4 -6 -3 -16 -16 -22 -20 -9 -21 -9 -7 2 9 7 15 21 13 30 -1 10 3
21 8 25 6 3 8 1 5 -4 -7 -11 39 -29 58 -23 6 1 15 3 22 3 7 0 10 4 7 9 -3 4
-16 5 -30 2 -14 -4 -24 -2 -24 5 0 6 7 8 15 5 11 -5 13 -2 9 10 -3 9 -1 17 5
17 6 1 16 2 23 3 6 0 13 7 16 15 3 8 0 11 -7 7 -7 -4 -10 -2 -9 5 2 6 -2 13
-8 16 -7 2 -11 -4 -10 -14 0 -12 -6 -18 -18 -18 -27 0 -33 25 -7 32 11 3 18 9
15 14 -3 5 -10 6 -16 3 -7 -4 -8 -2 -4 4 4 7 3 12 -2 12 -6 0 -13 8 -17 17 -4
12 3 9 22 -10 31 -29 54 -38 33 -12 -10 12 -10 18 0 30 8 9 9 15 2 15 -6 0
-13 -4 -16 -9 -7 -11 -56 9 -56 23 0 4 11 1 24 -8 14 -9 27 -12 29 -8 5 8 -25
39 -33 34 -2 -2 -6 2 -8 10 -2 9 -1 9 5 2 4 -6 17 -9 28 -7 11 3 28 4 37 4 17
0 17 2 1 27 -9 15 -13 24 -8 19 4 -4 17 1 28 10 10 10 22 17 26 17 3 -1 5 2 3
8 -1 5 2 7 8 3 5 -3 18 -2 27 4 18 10 37 -5 27 -21z m-119 10 c5 4 5 1 1 -6
-6 -10 -11 -10 -22 -1 -8 6 -14 14 -14 16 0 3 6 0 13 -6 8 -6 18 -7 22 -3z
m-89 -10 c3 -4 -1 -5 -10 -4 -8 1 -18 5 -22 8 -3 4 1 5 10 4 8 -1 18 -5 22 -8z
m47 -13 c-3 -9 -8 -14 -10 -11 -3 3 -2 9 2 15 9 16 15 13 8 -4z m32 -36 c-4
-5 -14 -8 -23 -8 -15 1 -15 2 1 6 9 2 14 9 11 15 -4 7 -2 8 5 4 6 -4 9 -12 6
-17z m-968 -19 c-1 -13 -6 -19 -15 -15 -8 3 -10 0 -5 -8 12 -20 12 -37 0 -34
-7 1 -11 -10 -11 -27 2 -39 -16 -59 -33 -37 -10 14 -11 12 -6 -8 4 -16 3 -22
-5 -17 -6 3 -13 2 -17 -4 -3 -5 -1 -10 6 -10 8 0 7 -6 -3 -17 -9 -10 -14 -26
-13 -35 3 -16 1 -16 -21 -1 -30 19 -32 1 -1 -22 21 -16 21 -16 -5 -1 -16 9
-28 13 -28 9 0 -12 16 -35 24 -34 21 3 26 -2 22 -24 -3 -13 0 -27 5 -30 5 -4
9 -12 9 -18 0 -8 -3 -8 -9 2 -5 8 -11 9 -15 3 -3 -6 4 -18 16 -26 12 -9 19
-16 14 -16 -5 0 -2 -10 6 -22 8 -13 14 -31 12 -40 -1 -10 2 -18 7 -18 20 0 8
-16 -13 -17 -16 -2 -19 0 -10 6 11 7 10 9 -2 14 -15 6 -21 -4 -16 -28 1 -5 -4
-4 -11 2 -10 10 -16 10 -28 0 -12 -9 -13 -9 -7 1 4 7 2 12 -5 12 -6 0 -18 8
-25 17 -10 15 -9 20 13 35 26 16 53 15 53 -4 0 -5 -4 -6 -10 -3 -5 3 -10 1
-10 -4 0 -13 11 -14 25 -3 12 9 19 43 8 41 -20 -3 -33 2 -30 12 1 6 -4 14 -11
16 -7 3 -10 -1 -6 -10 3 -10 -3 -20 -15 -27 -14 -7 -21 -7 -21 0 0 5 7 10 15
10 8 0 15 5 15 10 0 6 -7 10 -15 10 -8 0 -15 4 -15 10 0 5 8 7 18 4 14 -5 14
-3 -3 12 -15 13 -16 15 -3 11 9 -3 22 1 30 10 11 14 10 15 -12 8 -23 -7 -23
-7 -7 9 18 19 23 41 7 31 -5 -3 -20 1 -32 9 -12 9 -18 16 -12 16 5 0 15 -5 22
-12 22 -22 24 0 3 23 -18 20 -19 24 -6 32 8 4 19 5 24 2 6 -3 9 4 8 15 -2 24
-1 24 -32 4 -13 -9 -30 -14 -37 -11 -7 3 -4 6 7 7 20 1 20 1 1 15 -11 8 -15
15 -9 15 7 0 15 -4 18 -10 3 -5 11 -10 18 -10 8 0 8 3 -1 12 -8 8 -6 16 10 30
12 10 25 18 29 18 5 0 6 7 2 16 -5 13 -8 13 -15 2 -6 -8 -7 -5 -2 12 6 22 5
23 -9 12 -12 -10 -17 -10 -23 -1 -4 7 -3 9 4 5 6 -3 20 6 31 20 12 15 21 22
21 15 0 -6 7 -11 16 -11 14 0 14 3 4 15 -15 18 -11 24 19 30 14 2 24 -2 28
-12 5 -14 7 -14 15 0 5 9 15 14 22 11 8 -3 17 -1 21 5 10 16 14 13 12 -9z
m897 -45 c3 -8 1 -15 -4 -15 -6 0 -10 7 -10 15 0 8 2 15 4 15 2 0 6 -7 10 -15z
m-43 -22 c-12 -20 -14 -14 -5 12 4 9 9 14 11 11 3 -2 0 -13 -6 -23z m24 -23
c-3 -4 2 -11 11 -14 8 -3 12 -10 9 -16 -3 -5 0 -10 7 -11 10 0 10 -2 0 -6 -6
-2 -9 -10 -6 -15 4 -6 2 -8 -4 -5 -5 4 -9 15 -8 25 2 9 -2 20 -7 24 -13 8 -19
40 -6 32 5 -3 7 -9 4 -14z m-1080 0 c-3 -5 -12 -10 -18 -10 -7 0 -6 4 3 10 19
12 23 12 15 0z m25 -10 c0 -5 -5 -10 -11 -10 -5 0 -7 5 -4 10 3 6 8 10 11 10
2 0 4 -4 4 -10z m1100 0 c0 -5 -2 -10 -4 -10 -3 0 -8 5 -11 10 -3 6 -1 10 4
10 6 0 11 -4 11 -10z m-649 -23 c-10 -9 -11 -8 -5 6 3 10 9 15 12 12 3 -3 0
-11 -7 -18z m-497 -2 c3 -8 1 -15 -4 -15 -6 0 -10 7 -10 15 0 8 2 15 4 15 2 0
6 -7 10 -15z m31 -3 c-3 -3 -11 0 -18 7 -9 10 -8 11 6 5 10 -3 15 -9 12 -12z
m515 4 c0 -3 -4 -8 -10 -11 -5 -3 -10 -1 -10 4 0 6 5 11 10 11 6 0 10 -2 10
-4z m515 -15 c3 -5 2 -12 -3 -15 -5 -3 -9 1 -9 9 0 17 3 19 12 6z m-1110 -11
c3 -6 -1 -7 -9 -4 -18 7 -21 14 -7 14 6 0 13 -4 16 -10z m603 -10 c-7 -10 -15
-16 -18 -12 -3 4 -9 11 -15 15 -6 5 -3 7 8 3 9 -3 17 -1 17 4 0 6 5 10 10 10
6 0 5 -8 -2 -20z m-572 -16 c1 -9 0 -13 -4 -10 -3 4 -7 14 -8 22 -1 9 0 13 4
10 3 -4 7 -14 8 -22z m1101 4 c0 -13 -1 -17 -4 -10 -3 6 -10 9 -16 5 -7 -4 -6
1 2 10 17 21 17 21 18 -5z m60 -10 c-3 -7 -5 -2 -5 12 0 14 2 19 5 13 2 -7 2
-19 0 -25z m-617 7 c0 -2 -9 -3 -19 -2 -11 0 -18 5 -15 9 4 6 34 0 34 -7z
m-80 -15 c0 -5 -5 -10 -11 -10 -5 0 -7 5 -4 10 3 6 8 10 11 10 2 0 4 -4 4 -10z
m94 -16 c3 -8 2 -13 -3 -9 -5 3 -11 0 -13 -7 -5 -14 -38 -20 -38 -6 0 6 7 8
14 5 9 -4 17 2 21 14 8 23 11 24 19 3z m-540 -9 c-5 -11 -1 -14 12 -9 15 5 16
4 4 -4 -8 -6 -18 -8 -22 -6 -11 7 -10 34 2 34 5 0 7 -7 4 -15z m486 11 c0 -2
-7 -7 -16 -10 -8 -3 -12 -2 -9 4 6 10 25 14 25 6z m531 -13 c13 -16 12 -17 -3
-4 -10 7 -18 15 -18 17 0 8 8 3 21 -13z m-1054 -35 c-3 -8 -6 -5 -6 6 -1 11 2
17 5 13 3 -3 4 -12 1 -19z m-20 5 c-4 -3 -1 -13 6 -22 11 -14 10 -14 -5 -2
-21 15 -23 31 -6 31 6 0 8 -3 5 -7z m514 -16 c-10 -9 -11 -8 -5 6 3 10 9 15
12 12 3 -3 0 -11 -7 -18z m605 -5 c-3 -3 0 -12 6 -21 10 -13 10 -14 -2 -4 -16
15 -23 46 -8 37 5 -3 7 -9 4 -12z m-1085 -15 c-10 -9 -11 -8 -5 6 3 10 9 15
12 12 3 -3 0 -11 -7 -18z m34 -11 c-10 -14 -22 -23 -31 -19 -8 3 -14 7 -14 10
0 3 6 3 14 0 8 -3 19 5 26 19 8 13 15 22 17 20 3 -2 -3 -16 -12 -30z m475 21
c0 -2 -10 -12 -22 -23 l-23 -19 19 23 c18 21 26 27 26 19z m670 -1 c0 -2 -7
-6 -15 -10 -8 -3 -15 -1 -15 4 0 6 7 10 15 10 8 0 15 -2 15 -4z m-1220 -12 c0
-8 -19 -13 -24 -6 -3 5 1 9 9 9 8 0 15 -2 15 -3z m101 -15 c-11 -12 -17 -29
-14 -38 4 -13 3 -13 -5 -2 -11 15 12 61 30 61 5 0 0 -9 -11 -21z m1064 12 c3
-5 2 -12 -3 -15 -5 -3 -9 1 -9 9 0 17 3 19 12 6z m85 5 c0 -3 -4 -8 -10 -11
-5 -3 -10 -1 -10 4 0 6 5 11 10 11 6 0 10 -2 10 -4z m-37 -23 c-7 -2 -15 -4
-19 -3 -4 1 -10 -4 -15 -11 -4 -7 -15 -14 -23 -15 -9 -1 -14 2 -10 7 3 5 9 7
14 4 4 -3 10 1 13 8 2 7 15 13 28 14 13 0 18 -1 12 -4z m-1223 -24 c0 -5 -4
-9 -8 -9 -5 0 -9 7 -9 15 0 8 4 12 9 9 4 -3 8 -9 8 -15z m37 -11 c-3 -8 -6 -5
-6 6 -1 11 2 17 5 13 3 -3 4 -12 1 -19z m1057 6 c3 -8 2 -12 -4 -9 -6 3 -10
10 -10 16 0 14 7 11 14 -7z m-1019 -14 c-3 -5 1 -10 9 -10 9 0 16 -4 16 -10 0
-5 -7 -6 -17 -3 -11 4 -14 3 -9 -5 4 -7 1 -15 -8 -18 -9 -3 -14 -10 -11 -14 3
-5 1 -11 -4 -14 -12 -8 -7 24 5 32 5 4 9 14 9 22 -1 17 4 30 11 30 3 0 2 -4
-1 -10z m1065 6 c0 -2 -7 -7 -16 -10 -8 -3 -12 -2 -9 4 6 10 25 14 25 6z
m-1127 -21 c-3 -9 -8 -14 -10 -11 -3 3 -2 9 2 15 9 16 15 13 8 -4z m1144 -7
c-3 -8 -6 -5 -6 6 -1 11 2 17 5 13 3 -3 4 -12 1 -19z m37 7 c3 -8 1 -15 -4
-15 -6 0 -10 7 -10 15 0 8 2 15 4 15 2 0 6 -7 10 -15z m-1094 -35 c0 -5 -5
-10 -11 -10 -5 0 -7 5 -4 10 3 6 8 10 11 10 2 0 4 -4 4 -10z m1081 -7 c13 -16
12 -17 -3 -4 -10 7 -18 15 -18 17 0 8 8 3 21 -13z m39 8 c0 -6 -5 -13 -12 -17
-6 -4 -8 -3 -4 4 3 5 0 13 -6 15 -8 3 -6 6 5 6 9 1 17 -3 17 -8z m-1210 -6 c0
-2 -6 -8 -13 -14 -10 -8 -14 -7 -14 2 0 8 6 14 14 14 7 0 13 -1 13 -2z m-56
-23 c3 -5 -1 -9 -9 -9 -8 0 -12 4 -9 9 3 4 7 8 9 8 2 0 6 -4 9 -8z m128 1 c-6
-2 -10 -9 -7 -13 3 -5 1 -11 -4 -14 -7 -5 -8 11 -2 32 1 1 7 2 14 1 9 0 9 -2
-1 -6z m998 1 c0 -8 -19 -13 -24 -6 -3 5 1 9 9 9 8 0 15 -2 15 -3z m-760 -24
c6 -11 8 -20 6 -20 -3 0 -10 9 -16 20 -6 11 -8 20 -6 20 3 0 10 -9 16 -20z
m860 6 c0 -8 -4 -17 -8 -20 -4 -2 -8 4 -8 15 0 10 4 19 8 19 4 0 8 -6 8 -14z
m-1143 -13 c0 -8 -7 -9 -23 -3 -12 5 -25 6 -30 2 -4 -4 -5 -2 -2 3 8 14 55 13
55 -2z m73 -7 c0 -2 -7 -6 -15 -10 -8 -3 -15 -1 -15 4 0 6 7 10 15 10 8 0 15
-2 15 -4z m2046 -566 c42 -11 101 -22 132 -26 31 -3 58 -7 60 -9 2 -2 -23 -13
-55 -26 -78 -30 -182 -34 -271 -9 -104 29 -383 141 -376 151 3 5 8 7 12 5 4
-2 42 4 86 13 l79 17 129 -49 c71 -26 163 -57 204 -67z m-2392 87 c69 -12 69
-12 40 -26 -44 -20 -181 -70 -249 -91 -132 -41 -263 -51 -343 -27 l-43 13 61
12 c66 14 315 93 365 116 37 18 80 18 169 3z m215 -43 c12 -11 1 -19 -65 -49
-138 -65 -278 -106 -360 -106 -45 0 -83 5 -101 14 l-28 15 30 7 c60 12 252 75
335 109 69 28 94 34 130 29 25 -3 51 -11 59 -19z m1561 18 c0 -28 -143 -74
-262 -85 -9 -1 -33 -20 -52 -43 -24 -29 -50 -46 -88 -58 -65 -21 -223 -32
-260 -18 -28 12 -28 10 -19 130 1 10 6 10 23 1 32 -17 144 -6 177 18 21 16 58
21 196 32 190 14 268 21 274 27 7 6 11 5 11 -4z m220 -58 c91 -36 201 -76 245
-88 l79 -24 -44 -7 c-86 -15 -126 -13 -211 9 -87 23 -200 70 -255 109 -31 20
-31 22 -15 44 9 12 21 22 26 23 6 0 84 -30 175 -66z m-1550 31 c192 -12 213
-15 229 -28 41 -35 103 -43 178 -24 5 1 9 -26 10 -60 l2 -62 -39 -11 c-63 -17
-121 -18 -175 -4 -78 20 -138 56 -157 94 -16 32 -20 33 -75 35 -62 2 -138 30
-163 60 -14 16 -11 17 40 12 30 -4 98 -9 150 -12z m391 -31 c-42 -18 -89 -17
-121 1 -23 13 -18 14 65 14 87 -1 89 -1 56 -15z m209 -8 c3 -145 -2 -432 -8
-437 -4 -4 -35 -2 -69 3 l-62 11 -3 191 c-2 105 -2 205 0 222 l3 32 70 -1 c63
0 69 -2 69 -21z m215 14 c-26 -11 -126 -12 -144 -1 -8 5 20 9 75 9 59 1 82 -2
69 -8z m626 -73 c30 -13 86 -34 124 -47 61 -21 67 -25 45 -31 -99 -28 -290 19
-353 87 -34 36 -34 41 3 49 16 4 32 11 36 16 3 5 25 -4 48 -20 24 -17 67 -41
97 -54z m-1612 56 c17 -10 31 -20 31 -23 0 -7 -129 -68 -192 -90 -39 -14 -74
-18 -136 -16 -45 2 -85 5 -87 8 -3 3 39 19 92 37 54 18 130 48 168 66 83 40
85 40 124 18z m1399 -48 c30 -36 117 -85 149 -85 20 0 9 -13 -15 -17 -105 -16
-202 14 -269 82 l-32 33 62 10 c34 5 65 10 68 11 4 0 20 -15 37 -34z m-1228 5
c0 -11 -97 -70 -140 -85 -51 -18 -158 -21 -173 -6 -8 8 -7 11 4 11 7 0 55 20
104 45 78 38 98 44 148 42 31 -1 57 -4 57 -7z m39 -44 c12 -13 50 -37 84 -52
70 -32 186 -44 252 -25 43 12 56 3 48 -30 -6 -22 -4 -22 -39 -9 -68 26 -199
11 -292 -32 -42 -20 -44 -20 -82 -3 -36 16 -111 80 -110 94 1 6 101 78 111 80
3 1 16 -10 28 -23z m1037 3 c10 -12 38 -32 61 -46 24 -14 43 -28 43 -32 0 -18
-66 -72 -102 -83 -33 -10 -44 -9 -66 4 -88 52 -246 67 -349 34 -20 -6 -23 -4
-23 22 l0 29 90 -2 c49 -1 113 2 142 7 63 12 154 53 162 73 7 21 20 19 42 -6z
m-693 -141 c15 -6 26 -16 24 -22 -8 -26 -63 -41 -154 -41 -50 0 -94 -3 -97 -6
-4 -3 4 -21 17 -40 18 -28 36 -39 107 -62 47 -15 141 -37 210 -48 259 -41 427
-100 457 -159 19 -36 16 -101 -6 -133 -24 -37 -73 -70 -138 -93 l-52 -18 -91
29 -91 29 71 34 c163 79 117 124 -226 218 -109 30 -226 68 -260 84 -139 67
-152 158 -32 210 85 37 193 44 261 18z m562 -9 c31 -11 62 -31 70 -43 36 -54
-18 -126 -141 -192 l-59 -31 -94 27 -93 27 48 13 c27 7 76 25 109 41 100 46
184 153 90 113 -57 -24 -163 -13 -209 22 -69 50 156 69 279 23z m-516 -109 c1
-55 -1 -70 -13 -70 -7 0 -53 11 -102 25 -77 23 -124 51 -124 75 0 3 28 5 63 3
43 -2 78 3 112 16 28 10 53 19 56 20 3 0 7 -30 8 -69z m257 54 c23 -10 70 -17
112 -18 l74 -1 -37 -31 c-33 -30 -112 -65 -178 -80 l-28 -6 2 76 c1 42 5 76 9
76 4 0 25 -7 46 -16z m-396 -233 c19 -6 55 -15 79 -21 25 -7 40 -15 35 -18
-26 -19 -74 -85 -74 -102 0 -46 74 -87 301 -165 237 -82 272 -104 280 -180 8
-67 -31 -109 -131 -143 l-54 -19 -61 26 c-33 14 -62 26 -64 28 -2 2 13 18 33
35 32 28 37 37 31 59 -8 31 -20 37 -188 95 -199 69 -332 146 -355 206 -17 46
3 100 61 157 55 55 55 55 107 42z m145 -121 c4 -36 8 -71 10 -77 7 -21 -16
-15 -52 13 -18 14 -33 34 -33 44 0 18 58 95 66 88 2 -2 6 -33 9 -68z m83 59
c26 -7 51 -16 56 -20 6 -5 11 -42 12 -83 1 -71 0 -75 -23 -81 -14 -3 -40 -1
-59 5 -29 10 -34 16 -35 43 0 18 -2 58 -5 90 -3 31 -3 57 1 57 3 0 27 -5 53
-11z m164 -66 c10 -9 18 -23 18 -32 -1 -17 -33 -44 -66 -55 -20 -6 -21 -2 -23
59 l-2 65 28 -11 c15 -6 36 -18 45 -26z m-320 -255 l78 -32 -31 -28 c-22 -20
-29 -35 -27 -54 4 -32 31 -47 191 -109 164 -63 237 -114 237 -166 0 -27 -43
-72 -97 -101 l-48 -26 -42 19 c-38 16 -42 21 -34 41 24 65 -7 88 -202 153 -54
18 -120 48 -148 66 -80 55 -106 135 -62 193 16 20 90 75 102 76 3 0 40 -14 83
-32z m168 -59 l37 -11 -1 -59 c-2 -63 -4 -65 -53 -48 -31 10 -32 12 -32 70 0
32 3 59 6 59 3 0 23 -5 43 -11z m-75 -50 c0 -42 -13 -50 -39 -23 -21 20 -20
23 6 51 26 28 33 23 33 -28z m175 6 c16 -20 9 -45 -18 -63 -23 -15 -23 -15
-21 24 3 58 14 69 39 39z m-252 -218 c42 -11 43 -12 37 -47 -3 -19 -2 -40 3
-47 8 -13 104 -62 181 -92 70 -28 130 -67 142 -94 21 -46 -18 -97 -86 -113
-29 -7 -30 -7 -12 13 32 37 16 96 -31 114 -15 6 -75 23 -134 39 -155 43 -206
74 -231 143 -11 30 47 112 72 102 9 -4 35 -12 59 -18z m80 -61 c-2 -38 -18
-39 -18 -2 0 20 7 36 17 36 2 0 3 -15 1 -34z m92 -41 c0 -40 -19 -46 -49 -16
-14 14 -21 54 -12 79 1 1 15 -4 31 -13 25 -13 30 -22 30 -50z m-138 -125 l37
-11 -30 -27 c-22 -20 -30 -36 -31 -65 -1 -24 4 -42 13 -48 11 -7 9 -9 -8 -9
-37 0 -75 41 -78 84 -2 29 3 42 23 62 31 28 26 27 74 14z m63 -103 c2 -59 1
-64 -17 -59 -27 7 -47 40 -42 71 4 25 42 67 52 57 2 -3 5 -34 7 -69z m64 -44
c-2 -214 -31 -223 -35 -11 -3 121 -2 128 16 128 19 0 20 -7 19 -117z m75 81
c27 -26 24 -62 -7 -86 -12 -10 -25 -18 -29 -18 -3 0 -8 27 -10 60 -2 51 0 60
14 60 9 0 24 -7 32 -16z"/>
<path d="M2050 2801 c0 -6 4 -13 10 -16 6 -3 7 1 4 9 -7 18 -14 21 -14 7z"/>
<path d="M2041 2747 c-13 -21 -12 -21 5 -5 10 10 16 20 13 22 -3 3 -11 -5 -18
-17z"/>
<path d="M2569 2894 c-8 -10 -8 -18 0 -27 8 -10 7 -19 -5 -33 -8 -10 -13 -14
-10 -7 4 6 2 14 -4 18 -5 3 -10 1 -10 -5 0 -6 -6 -8 -12 -4 -10 5 -10 4 -1 -6
15 -16 56 -21 64 -7 4 5 9 5 13 -2 4 -6 2 -11 -5 -11 -7 0 -4 -7 7 -15 19 -15
19 -15 0 -8 -16 5 -18 3 -12 -12 4 -11 4 -16 0 -12 -4 4 -13 -1 -21 -11 -9
-11 -9 -6 2 17 11 21 12 31 4 26 -8 -6 -10 -4 -4 4 6 10 3 11 -14 2 -23 -13
-27 -26 -11 -36 6 -4 8 -10 5 -14 -2 -5 4 -16 15 -26 20 -18 28 -41 11 -30 -6
3 -14 -3 -20 -12 -6 -11 -11 -13 -11 -5 0 7 -4 11 -9 7 -5 -3 2 -17 16 -31 24
-24 24 -26 7 -45 -16 -18 -11 -25 19 -20 4 0 7 -4 7 -10 0 -6 7 -8 18 -4 13 5
14 3 6 -5 -9 -9 -17 -9 -32 -1 -28 15 -32 14 -32 -8 0 -10 -8 -22 -17 -25 -15
-6 -15 -9 -3 -16 8 -5 17 -7 21 -4 4 2 10 0 14 -6 4 -6 11 -8 16 -5 5 4 9 1 9
-4 0 -6 5 -11 10 -11 6 0 9 4 8 9 -2 5 6 16 16 24 15 11 16 16 6 22 -8 5 -11
4 -6 -3 4 -7 -1 -10 -14 -9 -11 1 -20 5 -20 10 0 4 -4 6 -10 2 -5 -3 -7 -13
-4 -23 5 -13 4 -14 -4 -3 -5 7 -16 10 -23 7 -8 -4 -7 -2 2 6 9 7 14 20 12 28
-3 9 -1 11 4 5 12 -15 34 -17 49 -4 18 15 18 33 0 26 -10 -4 -13 -1 -9 8 3 8
10 12 17 8 6 -3 2 3 -8 15 -19 22 -19 22 0 43 19 21 18 21 -4 39 l-22 18 31
26 c17 14 26 26 20 26 -6 0 -11 5 -11 11 0 5 4 7 10 4 6 -3 7 1 3 10 -5 13 -7
14 -14 3 -5 -7 -9 -11 -10 -8 0 3 -2 13 -4 23 -2 10 2 16 9 15 6 -2 12 2 13 7
0 6 -4 9 -10 7 -9 -2 -8 0 0 9 10 10 16 9 30 -1 10 -8 3 1 -15 20 -38 39 -56
44 -73 24z m51 -15 c5 -8 3 -22 -6 -33 -10 -14 -14 -16 -14 -5 0 12 -2 12 -11
-1 -8 -12 -9 -10 -4 7 3 12 1 24 -5 28 -6 3 -8 10 -5 15 8 12 36 6 45 -11z
m-50 -99 c0 -5 -4 -10 -10 -10 -5 0 -10 5 -10 10 0 6 5 10 10 10 6 0 10 -4 10
-10z m60 -14 c0 -2 -11 -13 -24 -25 -18 -17 -26 -19 -31 -10 -5 7 -4 10 2 6
10 -6 28 19 25 35 -1 4 5 5 13 2 8 -4 15 -7 15 -8z m-25 -106 c-13 -14 -15
-23 -7 -33 7 -8 7 -18 2 -27 -9 -13 -10 -13 -10 0 0 13 -1 13 -10 0 -6 -9 -10
-10 -10 -3 0 6 5 15 11 18 7 5 5 14 -5 29 -9 15 -11 28 -5 37 7 12 9 12 9 -1
0 -11 3 -11 11 3 8 14 14 16 22 8 7 -7 5 -16 -8 -31z"/>
<path d="M2594 2875 c8 -7 12 -16 8 -20 -4 -5 -2 -5 5 -1 16 9 6 33 -14 33
-14 0 -14 -1 1 -12z"/>
<path d="M2596 2675 c-3 -9 -11 -13 -17 -9 -8 5 -9 3 -4 -5 6 -10 11 -9 23 3
9 8 13 18 10 21 -3 3 -8 -1 -12 -10z"/>
<path d="M2500 2720 c0 -5 7 -10 15 -10 8 0 15 5 15 10 0 6 -7 10 -15 10 -8 0
-15 -4 -15 -10z"/>
<path d="M2545 2455 c-16 -14 -31 -34 -31 -45 -1 -11 1 -18 4 -16 2 3 13 1 24
-5 14 -8 24 -6 41 8 28 23 29 33 9 60 l-17 22 -30 -24z m34 8 c-3 -21 2 -33
12 -27 8 5 8 1 0 -14 -16 -31 -31 -36 -49 -18 -15 14 -14 18 8 41 25 26 31 30
29 18z"/>
<path d="M2550 2435 c-10 -12 -10 -19 -2 -27 17 -17 37 5 25 27 -9 15 -11 15
-23 0z m20 -15 c0 -5 -4 -10 -10 -10 -5 0 -10 5 -10 10 0 6 5 10 10 10 6 0 10
-4 10 -10z"/>
<path d="M1457 2843 c-4 -3 -3 -11 0 -17 14 -22 11 -35 -8 -33 -10 1 -19 5
-19 10 0 4 -4 6 -10 2 -12 -8 9 -55 25 -55 18 0 33 22 30 43 -2 9 0 17 5 17 4
0 7 -13 6 -29 0 -16 -5 -29 -11 -28 -5 1 -9 -4 -7 -10 1 -7 -2 -13 -7 -13 -5
0 -8 -13 -6 -30 2 -16 -1 -30 -6 -30 -6 0 -7 5 -4 10 3 6 1 10 -6 10 -8 0 -7
5 2 17 12 14 12 16 -1 11 -16 -5 -23 -48 -8 -48 5 0 7 -4 4 -9 -3 -5 2 -12 11
-15 10 -4 14 -4 10 0 -4 4 -2 13 5 21 6 7 8 16 4 20 -3 3 0 13 8 22 14 15 16
21 16 37 0 4 7 1 15 -6 8 -7 15 -11 16 -9 6 31 6 38 -1 34 -4 -3 -14 3 -21 12
-12 15 -12 16 3 10 22 -8 38 20 28 47 -6 19 -7 19 -14 0 -6 -17 -9 -17 -19 -4
-13 17 -31 22 -40 13z m63 -25 c10 1 11 -1 2 -4 -6 -3 -9 -10 -6 -16 4 -6 -7
0 -25 13 -36 27 -40 35 -8 17 12 -7 29 -11 37 -10z m-66 -49 c-3 -5 -10 -7
-15 -3 -5 3 -7 10 -3 15 3 5 10 7 15 3 5 -3 7 -10 3 -15z m57 -16 c13 -16 12
-17 -3 -4 -17 13 -22 21 -14 21 2 0 10 -8 17 -17z"/>
<path d="M1409 2721 c-13 -11 -22 -22 -19 -24 3 -3 18 6 33 19 33 28 20 33
-14 5z"/>
<path d="M1390 2640 c0 -5 5 -10 10 -10 6 0 10 5 10 10 0 6 -4 10 -10 10 -5 0
-10 -4 -10 -10z"/>
<path d="M1426 2575 c-5 -15 11 -31 21 -21 4 3 0 6 -8 6 -12 0 -12 2 0 9 8 5
9 11 3 15 -5 3 -12 -1 -16 -9z"/>
<path d="M1423 2528 c-6 -9 -2 -20 14 -35 13 -12 23 -18 23 -14 0 5 -7 14 -15
21 -12 10 -13 16 -4 26 7 9 7 14 1 14 -5 0 -14 -6 -19 -12z"/>
<path d="M1404 2436 c-13 -11 -16 -18 -8 -26 16 -16 52 -20 57 -6 4 9 -4 12
-24 11 -28 -2 -28 -1 -13 17 20 22 15 23 -12 4z"/>
<path d="M1473 2430 c-1 -11 2 -20 7 -20 4 0 7 7 6 15 -3 23 -12 26 -13 5z"/>
<path d="M1690 1581 c-12 -8 -10 -12 10 -19 27 -10 80 -2 83 13 3 13 -74 18
-93 6z"/>
<path d="M2235 1589 c-4 -6 -4 -13 -1 -16 7 -7 87 -6 94 1 12 12 -14 26 -48
26 -21 0 -42 -5 -45 -11z"/>
<path d="M1670 3965 c-8 -8 -39 -37 -67 -64 -29 -28 -54 -58 -54 -68 -5 -63
-4 -92 4 -122 5 -18 10 -43 13 -54 9 -49 36 -117 45 -111 5 3 7 9 4 14 -3 5 0
12 6 16 8 4 9 3 5 -4 -4 -7 -3 -12 3 -12 5 0 15 13 22 29 7 16 18 27 24 24 5
-4 7 -3 3 2 -4 4 0 14 10 22 13 10 14 13 2 11 -8 -2 -19 -7 -23 -13 -5 -5 -6
-1 -3 11 5 14 2 21 -9 21 -18 0 -18 -2 -5 -27 7 -13 7 -21 0 -25 -6 -4 -8 -11
-5 -16 4 -5 1 -9 -4 -9 -14 0 -14 17 -1 25 6 4 7 11 3 18 -10 16 -11 67 -1 61
10 -6 6 26 -6 44 -4 7 -5 16 -2 19 3 4 6 1 6 -6 0 -7 4 -10 10 -6 13 8 0 36
-14 28 -6 -3 -8 -3 -4 2 4 4 3 14 -3 22 -7 8 -8 13 -1 13 5 0 12 -7 16 -15 3
-8 10 -15 16 -15 6 0 9 4 5 9 -3 5 -1 12 5 16 6 4 9 -4 8 -19 -1 -13 -5 -23
-9 -20 -4 2 -6 -4 -4 -13 1 -10 -3 -24 -9 -32 -7 -10 -7 -13 0 -8 6 3 11 0 11
-8 0 -8 -4 -15 -9 -15 -4 0 -8 -5 -8 -12 0 -6 3 -8 7 -5 3 4 11 3 17 -3 7 -5
17 -5 26 0 12 8 12 10 1 10 -10 0 -11 3 -2 14 10 11 8 16 -7 20 -10 4 -19 13
-19 21 0 20 7 19 24 -2 11 -14 11 -11 -1 13 -13 28 -13 33 0 52 13 19 13 21 0
16 -11 -4 -14 0 -10 19 5 30 -18 42 -48 26 -11 -6 -22 -8 -25 -6 -2 3 5 8 16
12 13 4 18 12 15 23 -5 14 -4 15 5 2 6 -8 11 -11 11 -6 0 5 6 4 13 -2 9 -8 17
-8 27 0 13 8 12 9 -2 5 -22 -7 -40 14 -28 33 5 8 12 11 17 7 4 -5 1 -12 -7
-17 -11 -7 -10 -9 7 -7 17 1 20 5 13 18 -5 9 -6 19 -2 23 3 4 -2 4 -12 0 -16
-6 -17 -4 -7 14 14 26 11 28 -9 7z m-10 -40 c-7 -8 -17 -15 -23 -15 -6 0 -2 7
9 15 25 19 30 19 14 0z m16 -90 c3 -21 -14 -29 -31 -15 -8 6 -20 8 -26 4 -8
-4 -9 -3 -5 5 4 6 16 9 27 6 11 -4 19 -3 18 2 -1 4 -1 12 0 17 1 13 14 -2 17
-19z m-46 -113 c0 -5 -7 -9 -15 -9 -8 0 -12 4 -9 9 3 4 9 8 15 8 5 0 9 -4 9
-8z m57 -32 c-1 -21 -10 -18 -13 5 -1 8 2 15 6 15 5 0 8 -9 7 -20z m-57 -64
c0 -3 -4 -8 -10 -11 -5 -3 -10 -1 -10 4 0 6 5 11 10 11 6 0 10 -2 10 -4z"/>
<path d="M1700 3971 c0 -10 19 -25 25 -20 1 2 -3 10 -11 17 -8 7 -14 8 -14 3z"/>
<path d="M2575 3581 c-3 -5 -2 -12 3 -15 5 -3 9 1 9 9 0 17 -3 19 -12 6z"/>
<path d="M2530 3508 c-19 -29 -40 -57 -47 -61 -11 -6 -11 -12 -3 -22 8 -10 7
-13 -7 -11 -24 2 -42 -66 -23 -88 13 -17 45 -23 36 -7 -4 5 3 7 14 4 12 -3 22
1 26 11 3 9 11 13 17 9 5 -3 7 -2 4 4 -3 5 3 17 14 26 10 9 19 24 19 32 0 9 4
14 9 10 5 -3 12 -1 15 4 3 4 -2 8 -12 8 -36 0 -43 4 -40 20 4 25 31 50 48 45
13 -3 13 -3 0 7 -11 8 -18 7 -27 -6 -7 -9 -15 -14 -19 -11 -6 7 17 48 28 48 5
0 8 5 8 11 0 8 -6 7 -17 -2 -15 -12 -16 -12 -10 4 11 29 2 19 -33 -35z m17 -6
c-18 -20 -23 -37 -8 -27 6 3 8 -5 5 -19 -3 -17 2 -28 13 -35 14 -8 16 -14 7
-27 -14 -24 -54 -50 -54 -35 0 6 7 11 15 11 19 0 39 36 25 45 -6 4 -9 1 -8 -6
5 -21 -20 -21 -32 2 -7 12 -8 19 -2 15 6 -3 14 -1 18 5 3 6 0 15 -7 20 -11 7
-11 9 -1 9 7 0 10 4 7 10 -6 10 26 62 34 54 2 -2 -3 -12 -12 -22z m-42 -111
c3 -5 2 -12 -3 -15 -5 -3 -9 1 -9 9 0 17 3 19 12 6z"/>
<path d="M2527 3423 c-10 -9 -9 -23 1 -23 5 0 9 7 9 15 0 17 -1 18 -10 8z"/>
<path d="M2574 3458 c-4 -5 -3 -12 0 -15 3 -4 6 -1 6 6 0 7 4 10 9 6 5 -3 12
-2 15 3 3 5 -2 9 -10 9 -8 0 -17 -4 -20 -9z"/>
<path d="M1759 3313 c-13 -17 -13 -17 6 -3 11 8 22 16 24 17 2 2 0 3 -6 3 -6
0 -17 -8 -24 -17z"/>
<path d="M2171 3274 c0 -11 3 -14 6 -6 3 7 2 16 -1 19 -3 4 -6 -2 -5 -13z"/>
<path d="M2130 3230 c9 -16 40 -19 40 -3 0 3 -7 3 -15 -1 -9 -3 -15 0 -15 9 0
8 -5 15 -10 15 -7 0 -7 -6 0 -20z"/>
<path d="M2107 3216 c-4 -10 -3 -15 3 -11 6 3 10 -1 10 -10 0 -9 -4 -13 -10
-10 -5 3 -10 1 -10 -4 0 -16 20 -13 26 3 3 8 1 22 -4 31 -8 16 -9 16 -15 1z"/>
<path d="M2168 3209 c-20 -11 -24 -29 -6 -29 6 0 8 3 5 7 -4 3 1 12 11 19 20
16 14 18 -10 3z"/>
<path d="M2213 3205 c0 -8 3 -13 5 -10 3 3 12 -1 21 -7 10 -8 9 -4 -3 10 -23
26 -23 26 -23 7z"/>
<path d="M1707 3179 c7 -7 15 -10 18 -7 3 3 -2 9 -12 12 -14 6 -15 5 -6 -5z"/>
<path d="M2650 3175 c5 -7 6 -16 2 -20 -4 -5 -1 -5 6 -1 6 4 12 2 12 -3 0 -6
4 -11 8 -11 5 0 8 10 7 22 -1 14 -9 22 -23 23 -16 1 -19 -2 -12 -10z"/>
<path d="M2130 3160 c0 -5 5 -10 10 -10 6 0 10 5 10 10 0 6 -4 10 -10 10 -5 0
-10 -4 -10 -10z"/>
<path d="M2190 3160 c0 -5 5 -10 10 -10 6 0 10 5 10 10 0 6 -4 10 -10 10 -5 0
-10 -4 -10 -10z"/>
<path d="M2230 3160 c0 -5 5 -10 11 -10 5 0 7 5 4 10 -3 6 -8 10 -11 10 -2 0
-4 -4 -4 -10z"/>
<path d="M1799 3133 c-13 -16 -12 -17 4 -4 9 7 17 15 17 17 0 8 -8 3 -21 -13z"/>
<path d="M2656 3125 c4 -9 -2 -18 -15 -23 l-22 -8 25 -21 c18 -16 27 -19 34
-10 13 18 13 60 -1 69 -19 12 -27 9 -21 -7z m18 -27 c-3 -31 -3 -30 -14 -23
-7 4 -7 13 0 26 14 25 17 24 14 -3z"/>
<path d="M2213 3115 c0 -8 4 -12 9 -9 4 3 8 9 8 15 0 5 -4 9 -8 9 -5 0 -9 -7
-9 -15z"/>
<path d="M1730 3099 c0 -5 5 -7 10 -4 6 3 10 8 10 11 0 2 -4 4 -10 4 -5 0 -10
-5 -10 -11z"/>
<path d="M2250 3100 c0 -5 5 -10 11 -10 5 0 7 5 4 10 -3 6 -8 10 -11 10 -2 0
-4 -4 -4 -10z"/>
<path d="M1675 3094 c2 -4 0 -15 -6 -25 -7 -14 -6 -17 5 -13 14 5 16 29 3 39
-4 3 -5 2 -2 -1z"/>
<path d="M2155 3069 c-4 -6 -5 -12 -2 -15 2 -3 7 2 10 11 7 17 1 20 -8 4z"/>
<path d="M2240 3060 c-12 -7 -10 -9 7 -7 12 0 19 5 17 9 -6 10 -6 10 -24 -2z"/>
<path d="M2172 3050 c3 -8 16 -15 31 -15 14 -1 24 2 22 6 -3 4 -13 6 -23 5 -9
-2 -21 2 -25 8 -6 7 -7 6 -5 -4z"/>
<path d="M1680 3046 c0 -2 8 -10 18 -17 15 -13 16 -12 3 4 -13 16 -21 21 -21
13z"/>
<path d="M1628 3033 c7 -3 16 -2 19 1 4 3 -2 6 -13 5 -11 0 -14 -3 -6 -6z"/>
<path d="M1655 3019 c-6 -8 -4 -10 5 -4 10 6 12 4 6 -11 -6 -15 -5 -17 5 -6 9
9 10 15 2 23 -8 8 -13 7 -18 -2z"/>
<path d="M2865 3000 c-3 -6 1 -7 9 -4 18 7 21 14 7 14 -6 0 -13 -4 -16 -10z"/>
<path d="M1640 2990 c0 -5 -6 -9 -12 -7 -8 1 -13 -8 -13 -23 0 -15 5 -24 13
-22 6 1 12 -7 12 -18 0 -11 -6 -19 -12 -17 -8 1 -13 -8 -13 -23 0 -15 5 -24
13 -22 14 2 16 -14 2 -21 -6 -3 -5 -4 2 -3 7 2 13 9 13 17 0 8 -6 13 -12 12
-7 -2 -13 6 -13 16 0 14 6 19 19 16 16 -3 18 0 11 23 -4 15 -12 26 -19 25 -6
-2 -11 6 -11 16 0 14 6 19 19 16 14 -3 18 1 14 11 -6 16 -13 19 -13 4z"/>
<path d="M2687 2959 c-3 -11 -1 -16 4 -13 6 3 16 0 24 -6 22 -18 18 -3 -4 19
-19 19 -19 19 -24 0z"/>
<path d="M1670 2961 c0 -6 4 -12 8 -15 5 -3 9 1 9 9 0 8 -4 15 -9 15 -4 0 -8
-4 -8 -9z"/>
<path d="M1706 2958 c3 -5 10 -6 15 -3 13 9 11 12 -6 12 -8 0 -12 -4 -9 -9z"/>
<path d="M2000 2960 c-9 -6 -10 -10 -3 -10 6 0 15 5 18 10 8 12 4 12 -15 0z"/>
<path d="M2736 2955 c4 -8 8 -15 10 -15 2 0 4 7 4 15 0 8 -4 15 -10 15 -5 0
-7 -7 -4 -15z"/>
<path d="M2196 2942 c-3 -5 1 -9 9 -9 8 0 12 4 9 9 -3 4 -7 8 -9 8 -2 0 -6 -4
-9 -8z"/>
<path d="M2768 2928 c-7 -17 15 -19 29 -3 4 4 3 5 -4 2 -6 -4 -13 -2 -15 5 -3
8 -6 6 -10 -4z"/>
<path d="M2692 2918 c6 -16 38 -23 38 -9 0 6 -7 7 -17 4 -11 -4 -14 -3 -9 5 4
7 2 12 -4 12 -7 0 -10 -6 -8 -12z"/>
<path d="M2150 2910 c0 -5 5 -10 11 -10 5 0 7 5 4 10 -3 6 -8 10 -11 10 -2 0
-4 -4 -4 -10z"/>
<path d="M1682 2898 c-15 -15 -15 -28 0 -28 6 0 8 3 5 7 -4 3 -2 12 4 20 14
16 7 17 -9 1z"/>
<path d="M2187 2903 c7 -2 9 -11 6 -19 -3 -8 1 -14 8 -14 7 0 9 3 6 7 -4 3 -3
11 3 17 6 8 2 12 -13 13 -12 0 -17 -1 -10 -4z"/>
<path d="M1570 2896 c0 -2 7 -9 15 -16 13 -11 14 -10 9 4 -5 14 -24 23 -24 12z"/>
<path d="M2768 2893 c-10 -2 -18 -9 -18 -15 0 -6 3 -8 7 -5 3 4 11 3 17 -3 8
-6 12 -3 12 11 0 10 0 18 -1 18 0 -1 -8 -3 -17 -6z"/>
<path d="M2130 2880 c0 -5 5 -10 10 -10 6 0 10 5 10 10 0 6 -4 10 -10 10 -5 0
-10 -4 -10 -10z"/>
<path d="M2700 2881 c0 -6 5 -11 11 -11 5 0 7 -6 3 -12 -5 -9 -2 -9 9 1 9 7
17 19 16 25 0 6 -3 6 -6 -2 -4 -10 -8 -10 -19 -1 -10 8 -14 8 -14 0z"/>
<path d="M2936 2883 c-4 -5 -12 -8 -17 -8 -8 0 -12 -9 -8 -17 1 -2 2 -22 3
-45 2 -34 -1 -40 -11 -31 -10 8 -10 14 -2 24 8 10 8 14 1 14 -6 0 -16 -8 -21
-17 -6 -10 -11 -13 -11 -6 0 6 5 15 10 18 6 4 8 11 5 16 -3 5 1 6 9 3 9 -3 16
-1 16 5 0 6 -6 11 -12 11 -16 0 -40 -15 -39 -24 1 -3 -1 -5 -4 -3 -3 1 -20
-20 -38 -47 -25 -40 -32 -60 -31 -98 1 -66 25 -92 78 -85 22 3 43 13 48 21 5
9 15 13 21 10 7 -4 9 -3 4 1 -4 5 1 18 10 29 17 20 17 20 1 7 -22 -16 -24 -4
-3 19 13 14 12 16 -10 16 -18 0 -21 -3 -14 -12 7 -8 6 -15 -2 -19 -8 -6 -8 -9
1 -15 9 -5 9 -9 1 -14 -6 -4 -11 -2 -11 5 0 7 -9 5 -22 -7 l-23 -19 19 23 c17
20 15 27 -7 23 -5 -1 -6 3 -2 9 5 8 11 7 21 -1 11 -9 14 -8 14 3 0 8 -10 20
-22 27 -23 11 -23 11 2 5 22 -6 23 -5 11 9 -7 9 -17 15 -20 12 -4 -2 -8 2 -8
10 0 10 4 12 12 5 7 -6 16 -5 25 3 12 10 12 9 2 -4 -11 -15 -7 -29 9 -29 5 0
6 7 3 15 -5 11 -2 13 10 9 18 -7 20 3 6 26 -5 9 -5 19 1 26 7 8 6 15 -2 19 -8
6 -7 10 2 16 10 6 11 9 2 9 -7 0 -13 5 -13 11 0 6 6 9 13 6 8 -3 14 1 14 8 0
8 -7 11 -16 7 -14 -5 -14 -3 -2 11 13 17 11 24 -3 10z m-1 -82 c3 -5 2 -12 -3
-15 -5 -3 -9 1 -9 9 0 17 3 19 12 6z m-25 -42 c0 -14 -17 -10 -23 5 -4 10 -1
13 9 9 7 -3 14 -9 14 -14z m24 -5 c3 -8 2 -12 -4 -9 -6 3 -10 10 -10 16 0 14
7 11 14 -7z"/>
<path d="M2110 2866 c0 -5 8 -18 18 -29 16 -19 16 -20 0 -14 -10 4 -18 2 -18
-3 0 -12 27 -13 34 -2 2 4 -4 19 -15 32 -10 14 -19 21 -19 16z"/>
<path d="M2157 2863 c-12 -11 -8 -22 13 -33 16 -9 18 -8 14 5 -3 8 -11 12 -17
8 -6 -4 -8 0 -4 10 7 18 5 21 -6 10z"/>
<path d="M2250 2860 c0 -5 5 -10 11 -10 5 0 7 5 4 10 -3 6 -8 10 -11 10 -2 0
-4 -4 -4 -10z"/>
<path d="M1912 2839 c-12 -19 -7 -24 25 -20 6 1 17 -7 25 -17 20 -27 53 -23
52 8 -2 41 -3 42 -19 37 -8 -4 -17 -2 -20 3 -8 13 -25 13 -25 -1 0 -5 6 -7 13
-3 6 4 9 3 4 -1 -4 -5 -18 -10 -30 -12 -16 -2 -18 0 -8 6 7 5 9 11 4 14 -5 3
-14 -3 -21 -14z m95 -14 c4 -4 2 -5 -4 -1 -7 4 -13 2 -13 -3 0 -6 5 -11 10
-11 6 0 10 -5 10 -11 0 -6 -5 -7 -12 -2 -7 4 -16 8 -20 8 -5 0 -8 3 -8 8 0 4
0 11 0 16 0 11 26 8 37 -4z"/>
<path d="M2730 2845 c-7 -9 -11 -17 -9 -20 3 -2 10 5 17 15 14 24 10 26 -8 5z"/>
<path d="M2760 2839 c0 -5 5 -7 10 -4 6 3 10 8 10 11 0 2 -4 4 -10 4 -5 0 -10
-5 -10 -11z"/>
<path d="M2195 2790 c-4 -6 -12 -7 -18 -4 -7 4 -8 3 -4 -1 13 -15 34 -14 34 1
0 17 -4 18 -12 4z"/>
<path d="M1943 2770 c1 -11 7 -20 15 -20 7 0 10 5 6 12 -4 7 -3 8 5 4 6 -4 8
-12 5 -18 -4 -6 0 -6 13 1 11 6 23 8 27 6 3 -3 2 0 -2 5 -5 6 -18 12 -30 15
-12 2 -26 6 -31 10 -6 3 -9 -4 -8 -15z"/>
<path d="M2120 2774 c0 -6 6 -16 13 -23 10 -11 9 -13 -5 -8 -10 4 -18 2 -18
-3 0 -12 27 -13 34 -2 2 4 -2 16 -10 27 -8 10 -14 14 -14 9z"/>
<path d="M1905 2760 c-8 -13 4 -32 15 -25 4 3 13 -1 19 -9 10 -12 19 -13 51
-6 3 0 -3 5 -13 11 -9 5 -22 7 -27 4 -9 -6 -14 8 -11 28 2 11 -27 9 -34 -3z"/>
<path d="M2155 2760 c3 -5 8 -10 11 -10 2 0 4 5 4 10 0 6 -5 10 -11 10 -5 0
-7 -4 -4 -10z"/>
<path d="M2864 2402 c23 -26 23 -26 23 -7 0 8 -3 13 -5 10 -3 -3 -12 1 -21 7
-10 8 -9 4 3 -10z"/>
<path d="M2820 2400 c-9 -6 -10 -10 -3 -10 6 0 15 5 18 10 8 12 4 12 -15 0z"/>
<path d="M2830 2362 c0 -5 7 -9 15 -9 8 0 12 4 9 9 -3 4 -9 8 -15 8 -5 0 -9
-4 -9 -8z"/>
<path d="M2870 2361 c0 -6 4 -13 10 -16 6 -3 7 1 4 9 -7 18 -14 21 -14 7z"/>
</g>
</svg>
